HIERARCHY
ROOT joint_Root
{
	OFFSET 0.0 0.0 0.0
	CHANNELS 6 Xposition Yposition Zposition Zrotation Xrotation Yrotation 
	JOINT Hips
	{
		OFFSET -17.1583 93.1646 452.98
		CHANNELS 6 Xposition Yposition Zposition Zrotation Xrotation Yrotation 
		JOINT Spine
		{
			OFFSET 15.7357 0.0 0.0
			CHANNELS 6 Xposition Yposition Zposition Zrotation Xrotation Yrotation 
			JOINT Chest
			{
				OFFSET 8.98455 -0.406207 0.0
				CHANNELS 6 Xposition Yposition Zposition Zrotation Xrotation Yrotation 
				JOINT Neck
				{
					OFFSET 16.3773 0.0 0.0
					CHANNELS 6 Xposition Yposition Zposition Zrotation Xrotation Yrotation 
					JOINT Head
					{
						OFFSET 6.45672 0.0 0.0
						CHANNELS 6 Xposition Yposition Zposition Zrotation Xrotation Yrotation 
						End Site
						{
							OFFSET 0.0 0.0 0.0
						}
					}
				}
				JOINT Shoulder_L
				{
					OFFSET 12.9942 -0.242716 4.98039
					CHANNELS 6 Xposition Yposition Zposition Zrotation Xrotation Yrotation 
					JOINT UpperArm_L
					{
						OFFSET 5.34809 0.0 0.0
						CHANNELS 6 Xposition Yposition Zposition Zrotation Xrotation Yrotation 
						JOINT LowerArm_L
						{
							OFFSET 24.3286 1.87007e-05 0.0
							CHANNELS 6 Xposition Yposition Zposition Zrotation Xrotation Yrotation 
							JOINT Hand_L
							{
								OFFSET 22.2916 0.0 0.0
								CHANNELS 6 Xposition Yposition Zposition Zrotation Xrotation Yrotation 
								End Site
								{
									OFFSET 0.0 0.0 0.0
								}
							}
						}
					}
				}
				JOINT Shoulder_R
				{
					OFFSET 12.9945 -0.242716 -4.98039
					CHANNELS 6 Xposition Yposition Zposition Zrotation Xrotation Yrotation 
					JOINT UpperArm_R
					{
						OFFSET -5.34813 0.0 0.0
						CHANNELS 6 Xposition Yposition Zposition Zrotation Xrotation Yrotation 
						JOINT LowerArm_R
						{
							OFFSET -24.3289 0.000322201 0.0
							CHANNELS 6 Xposition Yposition Zposition Zrotation Xrotation Yrotation 
							JOINT Hand_R
							{
								OFFSET -22.2915 -0.000108084 0.0
								CHANNELS 6 Xposition Yposition Zposition Zrotation Xrotation Yrotation 
								End Site
								{
									OFFSET 0.0 0.0 0.0
								}
							}
						}
					}
				}
			}
		}
		JOINT UpperLeg_L
		{
			OFFSET -2.19248 -6.46944 0.0
			CHANNELS 6 Xposition Yposition Zposition Zrotation Xrotation Yrotation 
			JOINT LowerLeg_L
			{
				OFFSET 39.0811 0.0 -1.23785e-05
				CHANNELS 6 Xposition Yposition Zposition Zrotation Xrotation Yrotation 
				JOINT Foot_L
				{
					OFFSET 40.9854 0.0 -1.26872e-05
					CHANNELS 6 Xposition Yposition Zposition Zrotation Xrotation Yrotation 
					JOINT Toes_L
					{
						OFFSET 11.7543 0.0 0.0
						CHANNELS 6 Xposition Yposition Zposition Zrotation Xrotation Yrotation 
						End Site
						{
							OFFSET 0.0 0.0 0.0
						}
					}
				}
			}
		}
		JOINT UpperLeg_R
		{
			OFFSET -2.19251 6.46944 0.0
			CHANNELS 6 Xposition Yposition Zposition Zrotation Xrotation Yrotation 
			JOINT LowerLeg_R
			{
				OFFSET -39.0811 -0.00228153 -0.0401928
				CHANNELS 6 Xposition Yposition Zposition Zrotation Xrotation Yrotation 
				JOINT Foot_R
				{
					OFFSET -40.9854 0.0 0.0
					CHANNELS 6 Xposition Yposition Zposition Zrotation Xrotation Yrotation 
					JOINT Toes_R
					{
						OFFSET -11.7543 0.0 0.0
						CHANNELS 6 Xposition Yposition Zposition Zrotation Xrotation Yrotation 
						End Site
						{
							OFFSET 0.0 0.0 0.0
						}
					}
				}
			}
		}
	}
}
MOTION
Frames:	4
Frame Time:	0.0333333
0.000000 0.000000 0.000000 0.000000 0.000000 -0.000000 0.896101 92.996700 0.876889 89.089900 0.879309 1.189890 15.735700 0.000005 -0.000001 111.285000 87.229100 -111.199000 8.984550 -0.406207 -0.000000 -2.604450 2.003250 0.216920 16.377300 -0.000001 -0.000001 1.994280 0.152266 -1.473220 6.456720 -0.000001 -0.000000 3.777290 -2.011880 3.419020 12.994200 -0.242716 4.980390 -92.939900 9.078640 -71.971400 5.348090 -0.000007 -0.000001 -67.097800 23.337600 -3.938000 24.328600 0.000019 0.000005 10.671900 31.799400 -19.678400 22.291600 -0.000001 0.000005 -12.535800 5.241610 1.646740 12.994500 -0.242716 -4.980390 88.183300 6.498790 -74.345400 -5.348130 -0.000001 -0.000004 -71.609200 30.034800 -3.008050 -24.328900 0.000322 -0.000009 1.331350 4.583880 -16.226800 -22.291500 -0.000108 -0.000004 2.134800 5.290070 0.348827 -2.192480 -6.469440 -0.000000 -175.418000 -3.696780 0.127454 39.081100 -0.000007 -0.000012 0.040227 -0.148897 15.118600 40.985400 -0.000006 -0.000013 -0.073531 11.743500 -69.291600 11.754300 -0.000000 0.000003 -0.000436 0.174673 -9.491770 -2.192510 6.469440 -0.000001 174.738000 6.070280 -177.092000 -39.081100 -0.002282 -0.040193 0.004017 -0.003505 10.975000 -40.985400 0.000008 0.000006 -9.350520 5.600560 -67.182300 -11.754300 -0.000006 -0.000006 -0.010140 0.272346 -5.508390
0.000000 0.000000 0.000000 0.000000 0.000000 -0.000000 0.802970 92.995600 0.932694 89.171900 1.155710 1.160300 15.735700 0.000005 -0.000001 112.404000 87.128900 -112.372000 8.984550 -0.406207 -0.000000 -2.458520 2.185080 0.110978 16.377300 -0.000001 -0.000001 1.499790 -0.191724 -0.686138 6.456720 -0.000001 -0.000000 2.867230 -2.205530 4.233550 12.994200 -0.242716 4.980390 -92.999800 9.182930 -71.821500 5.348090 -0.000007 -0.000001 -64.135100 21.874600 -6.603200 24.328600 0.000019 0.000005 10.389300 34.466700 -17.952100 22.291600 -0.000001 0.000005 -15.577500 5.295020 0.182690 12.994500 -0.242716 -4.980390 88.230700 6.387490 -74.482700 -5.348130 -0.000001 -0.000004 -71.851200 29.144000 -2.483170 -24.328900 0.000322 -0.000009 1.240450 4.194900 -16.502800 -22.291500 -0.000108 -0.000004 1.969810 5.292760 0.274250 -2.192480 -6.469440 -0.000000 -175.422000 -3.564780 0.196051 39.081100 -0.000007 -0.000012 0.039875 -0.149438 14.940500 40.985400 -0.000006 -0.000013 -0.133620 11.904100 -69.253000 11.754300 -0.000000 0.000003 -0.000465 0.175111 -9.473970 -2.192510 6.469440 -0.000001 174.704000 6.371560 -177.110000 -39.081100 -0.002282 -0.040193 0.004317 -0.004987 11.120900 -40.985400 0.000008 0.000006 -9.346230 5.604550 -67.314900 -11.754300 -0.000006 -0.000006 -0.010113 0.272147 -5.516550
0.000000 0.000000 0.000000 0.000000 0.000000 -0.000000 0.674672 93.008400 1.024440 89.268600 1.589860 0.907369 15.735700 0.000005 -0.000001 113.655000 87.145300 -113.616000 8.984550 -0.406207 -0.000000 -2.538000 2.286520 0.129193 16.377300 -0.000001 -0.000001 0.914919 -0.434095 0.028069 6.456720 -0.000001 -0.000000 1.859500 -2.330330 5.197080 12.994200 -0.242716 4.980390 -92.913100 8.936970 -71.862900 5.348090 -0.000007 -0.000001 -60.284800 18.410400 -10.047100 24.328600 0.000019 0.000005 9.779960 38.505400 -15.477000 22.291600 -0.000001 0.000005 -20.382500 5.370020 -2.026890 12.994500 -0.242716 -4.980390 88.274200 6.217180 -74.452600 -5.348130 -0.000001 -0.000004 -72.019100 27.584800 -1.878370 -24.328900 0.000322 -0.000009 1.061830 3.589670 -16.504900 -22.291500 -0.000108 -0.000004 1.856450 5.298970 0.101445 -2.192480 -6.469440 -0.000000 -175.399000 -3.442100 0.128814 39.081100 -0.000007 -0.000012 0.038220 -0.147141 14.561100 40.985400 -0.000006 -0.000013 -0.228106 12.242300 -69.115300 11.754300 -0.000000 0.000003 -0.000446 0.174821 -9.485750 -2.192510 6.469440 -0.000001 174.647000 7.048720 -177.179000 -39.081100 -0.002282 -0.040193 0.004233 -0.004596 11.030000 -40.985400 0.000008 0.000006 -9.440860 5.852720 -67.299400 -11.754300 -0.000006 -0.000006 -0.010401 0.274275 -5.429480
0.000000 0.000000 0.000000 0.000000 0.000000 -0.000000 0.524458 93.073300 1.060190 89.374400 2.262260 0.166943 15.735700 0.000005 -0.000001 114.080000 87.395800 -113.897000 8.984550 -0.406207 -0.000000 -3.015140 2.107020 0.421614 16.377300 -0.000001 -0.000001 0.051964 -0.470905 0.470252 6.456720 -0.000001 -0.000000 0.998622 -2.222940 6.026570 12.994200 -0.242716 4.980390 -92.676500 8.236030 -71.926800 5.348090 -0.000007 -0.000001 -56.267800 10.957400 -14.019300 24.328600 0.000019 0.000005 6.921440 40.461000 -10.596100 22.291600 -0.000001 0.000005 -25.063700 5.387770 -2.535480 12.994500 -0.242716 -4.980390 88.322900 6.002750 -74.358500 -5.348130 -0.000001 -0.000004 -71.787500 25.687900 -1.488150 -24.328900 0.000322 -0.000009 1.092890 3.813310 -16.020400 -22.291500 -0.000108 -0.000004 2.047320 5.302040 0.015081 -2.192480 -6.469440 -0.000000 -175.388000 -3.365000 -0.261826 39.081100 -0.000007 -0.000012 0.037594 -0.153970 13.721300 40.985400 -0.000006 -0.000013 -0.372285 12.775400 -68.830700 11.754300 -0.000000 0.000003 -0.000397 0.174066 -9.516440 -2.192510 6.469440 -0.000001 174.650000 7.830520 -177.459000 -39.081100 -0.002282 -0.040193 0.003858 -0.002857 10.316600 -40.985400 0.000008 0.000006 -9.966310 5.925160 -66.801400 -11.754300 -0.000006 -0.000006 -0.010282 0.273404 -5.465140
